<svg width="178" height="183" viewBox="0 0 178 183" fill="none" xmlns="http://www.w3.org/2000/svg">
<mask id="mask0_414_3877" style="mask-type:alpha" maskUnits="userSpaceOnUse" x="0" y="0" width="178" height="183">
<path fill-rule="evenodd" clip-rule="evenodd" d="M85.4428 6.63172C81.6333 6.63172 78.1725 8.84984 76.5814 12.3112L73.3104 19.4274L67.9199 16.7151L71.1019 9.79252C73.6768 4.1908 79.2776 0.601074 85.4428 0.601074H90.6552C97.3398 0.601074 103.299 4.81195 105.532 11.1126L109.081 21.1281C109.794 23.7778 111.001 26.2601 112.63 28.448L112.623 28.4523L114.11 30.3912C120.317 38.4855 128.78 44.5631 138.433 47.8591L139.9 48.3599L143.803 34.7427C144.933 30.8017 143.478 26.5748 140.161 24.165L136.114 21.2246C132.94 18.9187 128.694 18.7389 125.336 20.7681L118.543 24.8745L116.214 19.2355L122.217 15.607C127.65 12.323 134.522 12.614 139.659 16.3457L143.706 19.2861C149.073 23.186 151.429 30.0266 149.601 36.4046L146.992 45.5024C145.374 49.4701 144.749 53.7736 145.171 58.0392C145.737 68.1672 149.271 77.9126 155.342 86.0561L156.124 87.1053L166.878 78.1823C169.952 75.6311 171.16 71.4627 169.925 67.6631L168.385 62.9223C167.138 59.0844 163.656 56.4109 159.626 56.1971L151.542 55.7681V55.0638C151.542 53.2748 151.805 51.4956 152.323 49.7832L152.327 49.7707L159.946 50.1749C166.467 50.5209 172.102 54.8477 174.12 61.0587L175.661 65.7995C177.659 71.9487 175.704 78.6946 170.729 82.8233L165.313 87.3169L163.786 88.4344C160.911 90.5388 158.371 93.0585 156.248 95.9065L156.204 95.8698L155.832 96.4039C149.341 105.73 146.102 116.934 146.617 128.285L159.904 127.039C163.779 126.675 167.066 124.044 168.269 120.342L169.925 115.245C171.16 111.445 169.952 107.277 166.877 104.726L160.983 99.8351C162.076 98.1259 163.445 96.6134 165.032 95.358L170.728 100.085C175.704 104.213 177.659 110.959 175.661 117.109L174.004 122.206C172.058 128.196 166.738 132.455 160.467 133.043L147.156 134.291L147.164 134.347L147.133 134.349C145.122 134.517 143.145 134.941 141.249 135.607L141.244 135.574L141.231 135.578C130.188 139.191 120.692 146.416 114.265 156.076L125.199 162.309C128.592 164.244 132.812 163.967 135.924 161.607L139.404 158.967C142.203 156.843 143.644 153.377 143.174 149.894L142.098 141.91C143.968 141.114 145.969 140.664 148.004 140.583L149.151 149.088C149.911 154.725 147.579 160.334 143.048 163.771L139.569 166.411C134.533 170.231 127.704 170.679 122.212 167.549L113.245 162.436C110.342 160.625 107.199 159.23 103.908 158.293C102.475 157.857 101.029 157.485 99.5723 157.177L98.9589 157.021L98.9652 157.052C90.0462 155.276 80.7832 155.879 72.1228 158.843L76.7974 170.228C78.2999 173.887 81.8637 176.276 85.8192 176.276H91.5387C95.3304 176.276 98.7784 174.078 100.379 170.641L103.202 164.581C105.052 165.404 106.806 166.427 108.434 167.631L105.846 173.188C103.255 178.75 97.6751 182.307 91.5387 182.307H85.8192C79.4177 182.307 73.6503 178.44 71.2188 172.519L67.9832 164.639L68.0395 164.615C67.6119 163.445 67.1201 162.301 66.5667 161.189L66.5487 161.145L66.5457 161.147C65.7671 159.587 64.8673 158.088 63.8538 156.665L63.383 156.004L63.3884 156.001L63.2878 155.87L63.1042 155.613L63.0941 155.619L62.2014 154.459C55.6489 145.944 46.6066 139.682 36.3312 136.543L35.5806 136.314L32.6942 148.336C31.7733 152.172 33.2536 156.184 36.4449 158.503L41.1084 161.891C44.1707 164.116 48.2438 164.368 51.557 162.538L58.1277 158.908C59.125 160.663 59.9819 162.493 60.6912 164.381L54.4733 167.816C49.1113 170.779 42.5196 170.371 37.5637 166.77L32.9002 163.382C27.7356 159.629 25.3398 153.136 26.8302 146.928L28.6286 139.437L29.626 136.63C30.5291 134.087 30.8569 131.376 30.5859 128.692L30.2021 124.89C29.6779 115.225 26.4499 105.887 20.8687 97.9497L19.7248 96.3229L9.91691 104.691C6.91464 107.252 5.75197 111.37 6.9715 115.124L8.7656 120.645C9.92967 124.228 13.0529 126.82 16.7888 127.304L22.9316 128.099L22.9446 128.845C22.9706 130.332 22.8146 131.817 22.4801 133.266L22.2883 134.097L16.0145 133.284C9.96857 132.502 4.914 128.307 3.03012 122.509L1.23602 116.987C-0.73761 110.913 1.14399 104.248 6.00274 100.103L14.4932 92.8591C16.4783 91.5975 18.2559 90.0417 19.7665 88.2483L19.7754 88.2567L19.844 88.1558C20.7174 87.1078 21.5002 85.9796 22.1805 84.7825L22.7473 83.7852L22.7378 83.7833C27.4802 75.9932 30.0859 67.0723 30.2675 57.9232L30.3179 55.3858L17.2718 56.1506C13.2631 56.3856 9.80816 59.0537 8.56725 62.8728L6.81706 68.2594C5.65772 71.8275 6.64788 75.7442 9.36358 78.3327L14.9546 83.6618L13.284 85.2975C12.8179 85.7539 12.3175 86.1739 11.7871 86.5538L10.3376 87.5923L5.20276 82.698C0.807776 78.509 -0.794644 72.1702 1.08158 66.3958L2.83177 61.0093C4.83999 54.8286 10.4313 50.5106 16.9189 50.1303L26.1988 49.5863L26.1995 49.5999L30.1433 49.3834C31.7459 49.2955 33.3306 49.0157 34.8638 48.551L34.8665 48.5654L35.7244 48.2782C46.3052 44.7361 55.4562 37.8662 61.8108 28.6946L62.0166 28.3976L51.6333 21.3413C48.232 19.0298 43.7462 19.1003 40.4191 21.5175L36.0694 24.6778C33.0243 26.8901 31.5242 30.6572 32.2147 34.3572L33.6254 41.9156L27.55 42.234L26.2864 35.4636C25.1689 29.4758 27.5967 23.3793 32.5246 19.7989L36.8744 16.6386C42.2588 12.7266 49.5184 12.6126 55.023 16.3534L61.6839 20.88L61.6751 20.8874L64.7584 23.0894C66.937 24.6453 69.4051 25.7494 72.0171 26.3368L73.1309 26.5873C83.1056 29.4377 93.7174 29.224 103.583 25.9587L104.31 25.7183L99.8478 13.1269C98.4682 9.23367 94.7857 6.63172 90.6552 6.63172H85.4428ZM67.4464 31.1498L66.7679 32.1292C59.6721 42.3705 49.4537 50.0417 37.6389 53.9969L36.3688 54.4221L36.297 58.0429C36.075 69.2272 32.6087 80.1062 26.3194 89.3573L24.294 92.3366L25.8018 94.4809C32.4206 103.894 36.0756 115.07 36.2978 126.575L36.3688 130.249L38.0931 130.775C49.567 134.28 59.664 141.273 66.9808 150.781L69.0885 153.52C81.2995 149.067 94.6588 148.864 107.003 152.948L108.731 153.52L108.734 153.516C115.913 142.338 126.729 133.978 139.356 129.846L140.632 129.429L140.593 128.568C140.016 115.89 143.632 103.375 150.883 92.9586L151.888 91.5139L150.507 89.6605C143.523 80.2927 139.546 69.0264 139.101 57.3505L138.99 54.4218L136.484 53.5662C125.705 49.8858 116.256 43.0994 109.325 34.0609L107.092 31.1497L105.478 31.6839C94.0398 35.4697 81.7035 35.582 70.1979 32.0052L67.4464 31.1498Z" fill="white"/>
<path fill-rule="evenodd" clip-rule="evenodd" d="M86.4783 6.7326C86.473 5.38201 85.3738 4.29144 84.0233 4.29679L82.884 4.3013C81.5333 4.30665 80.4427 5.40608 80.4482 6.75681L80.5077 21.1594L86.5387 22.1044L86.4783 6.7326Z" fill="white"/>
<path fill-rule="evenodd" clip-rule="evenodd" d="M96.0604 6.7326C96.0551 5.38201 94.9559 4.29144 93.6053 4.29679L92.466 4.3013C91.1153 4.30665 90.0247 5.40608 90.0303 6.75681L90.0897 21.1594L96.1207 22.1044L96.0604 6.7326Z" fill="white"/>
<path fill-rule="evenodd" clip-rule="evenodd" d="M89.3849 154.774C89.3902 153.424 90.4894 152.333 91.84 152.338L92.9793 152.343C94.33 152.348 95.4206 153.448 95.415 154.798L95.3556 169.201L89.3246 170.146L89.3849 154.774Z" fill="white"/>
<path fill-rule="evenodd" clip-rule="evenodd" d="M79.8029 154.775C79.8082 153.424 80.9074 152.333 82.258 152.339L83.3973 152.343C84.748 152.349 85.8386 153.448 85.833 154.799L85.7736 169.201L79.7426 170.146L79.8029 154.775Z" fill="white"/>
<path fill-rule="evenodd" clip-rule="evenodd" d="M168.211 63.9901C169.484 63.5383 170.149 62.1403 169.698 60.8675L169.316 59.7938C168.865 58.5209 167.466 57.8554 166.193 58.3075L152.621 63.1277L153.724 69.1318L168.211 63.9901Z" fill="white"/>
<path fill-rule="evenodd" clip-rule="evenodd" d="M171.383 73.0328C172.656 72.5811 173.321 71.183 172.869 69.9102L172.488 68.8366C172.036 67.5636 170.638 66.8981 169.365 67.3502L155.793 72.1704L156.896 78.1745L171.383 73.0328Z" fill="white"/>
<path fill-rule="evenodd" clip-rule="evenodd" d="M28.6265 112.418C29.9028 111.976 31.2956 112.653 31.7373 113.929L32.1099 115.006C32.5516 116.282 31.8748 117.675 30.5983 118.117L16.9868 122.825L14.1 117.446L28.6265 112.418Z" fill="white"/>
<path fill-rule="evenodd" clip-rule="evenodd" d="M25.4585 103.376C26.7348 102.934 28.1276 103.611 28.5693 104.887L28.9419 105.964C29.3837 107.24 28.7069 108.633 27.4303 109.074L13.8188 113.782L10.9321 108.404L25.4585 103.376Z" fill="white"/>
<path fill-rule="evenodd" clip-rule="evenodd" d="M137.707 159.802C138.492 160.901 140.02 161.155 141.119 160.37L142.046 159.707C143.145 158.922 143.399 157.395 142.613 156.296L134.238 144.578L128.771 147.294L137.707 159.802Z" fill="white"/>
<path fill-rule="evenodd" clip-rule="evenodd" d="M129.887 165.341C130.672 166.44 132.199 166.695 133.298 165.909L134.225 165.247C135.324 164.462 135.579 162.934 134.793 161.835L126.418 150.118L120.951 152.834L129.887 165.341Z" fill="white"/>
<path fill-rule="evenodd" clip-rule="evenodd" d="M49.0159 41.5411C49.7924 42.6461 49.526 44.1715 48.4209 44.9479L47.4887 45.6029C46.3835 46.3794 44.858 46.1129 44.0817 45.0075L35.8035 33.2215L40.1781 28.9637L49.0159 41.5411Z" fill="white"/>
<path fill-rule="evenodd" clip-rule="evenodd" d="M56.8323 36.001C57.6088 37.1061 57.3424 38.6314 56.2373 39.4079L55.3051 40.0629C54.1999 40.8394 52.6744 40.5728 51.8981 39.4675L43.6199 27.6815L47.9945 23.4236L56.8323 36.001Z" fill="white"/>
<path fill-rule="evenodd" clip-rule="evenodd" d="M40.112 161.34C39.3231 162.436 39.5724 163.964 40.6687 164.753L41.5934 165.419C42.6899 166.208 44.2182 165.958 45.0069 164.862L53.4169 153.169L49.0904 148.863L40.112 161.34Z" fill="white"/>
<path fill-rule="evenodd" clip-rule="evenodd" d="M32.3581 155.713C31.5692 156.809 31.8184 158.337 32.9148 159.126L33.8395 159.791C34.9359 160.58 36.4643 160.331 37.253 159.234L45.663 147.542L41.3365 143.235L32.3581 155.713Z" fill="white"/>
<path fill-rule="evenodd" clip-rule="evenodd" d="M124.698 39.8078C123.9 40.8978 122.37 41.135 121.28 40.3375L120.361 39.6648C119.271 38.8673 119.034 37.3369 119.831 36.2469L128.337 24.6244L133.774 27.4012L124.698 39.8078Z" fill="white"/>
<path fill-rule="evenodd" clip-rule="evenodd" d="M132.452 45.4345C131.654 46.5245 130.124 46.7617 129.034 45.9642L128.115 45.2915C127.025 44.494 126.787 42.9636 127.585 41.8736L136.091 30.2511L141.528 33.0279L132.452 45.4345Z" fill="white"/>
<path fill-rule="evenodd" clip-rule="evenodd" d="M8.4528 65.3217C7.17368 64.8881 5.78527 65.5736 5.35175 66.8527L4.98605 67.9317C4.55249 69.211 5.23819 70.5995 6.51753 71.0328L20.1589 75.6536L23.0112 70.2563L8.4528 65.3217Z" fill="white"/>
<path fill-rule="evenodd" clip-rule="evenodd" d="M11.5622 56.2587C10.2831 55.8251 8.89465 56.5106 8.46112 57.7897L8.09543 58.8687C7.66186 60.148 8.34757 61.5365 9.6269 61.9698L23.2683 66.5906L26.1206 61.1933L11.5622 56.2587Z" fill="white"/>
<path fill-rule="evenodd" clip-rule="evenodd" d="M149.415 110.645C148.14 110.201 147.465 108.808 147.909 107.532L148.283 106.456C148.727 105.18 150.121 104.506 151.396 104.95L164.999 109.683L163.935 115.694L149.415 110.645Z" fill="white"/>
<path fill-rule="evenodd" clip-rule="evenodd" d="M146.302 119.708C145.026 119.264 144.352 117.871 144.795 116.595L145.17 115.519C145.613 114.243 147.007 113.569 148.283 114.013L161.886 118.746L160.821 124.757L146.302 119.708Z" fill="white"/>
</mask>
<g mask="url(#mask0_414_3877)">
<rect x="-5" width="185" height="182" fill="url(#paint0_linear_414_3877)"/>
</g>
<defs>
<linearGradient id="paint0_linear_414_3877" x1="44.5" y1="33" x2="180" y2="213" gradientUnits="userSpaceOnUse">
<stop stop-color="#F72585"/>
<stop offset="1" stop-color="#2D00F7"/>
</linearGradient>
</defs>
</svg>
